<svg version="1.1" xmlns="http://www.w3.org/2000/svg" viewBox="-281.59999961853026 -2801.9202178955074 4566.0162109375 3121.4082427978515"><desc>Created with Snap</desc><defs></defs><g><rect x="-281.59999961853026" y="-2801.9202178955074" width="4566.0162109375" height="3121.4082427978515" fill="#f5b82e" style=""></rect><g transform="matrix(17.5628,0,0,17.5628,1123.2672,-2600.0971)"><title>artifact</title><desc>Created with Sketch.</desc><g stroke="none" stroke-width="1" fill="none" fill-rule="evenodd"><g transform="translate(0.000000, 6.000000)" fill="#000000" fill-rule="nonzero"><polygon points="32.7402222 56.7022222 0 0 30.3677778 0 43.2977778 46.2633333" fill="#292929" style=""></polygon><polygon points="37.7224444 12.4555556 34.5195556 0 100 0 85.2906667 25.3855556" fill="#292929" style=""></polygon><polygon points="46.5005556 42.586 39.5017778 17.2004444 65.0058889 23.8434444" fill="#292929" style=""></polygon><polygon points="69.7508889 24.911 35.1126667 60.1423333 50.2965556 86.7141111 83.5112222 28.5883333" fill="#292929" style=""></polygon></g></g><defs></defs></g><g><g transform="matrix(1.024,0,0,-1.024,0,0)"><path d="M73 52L73 585L49 585Q25 585 25 611Q25 638 49 638L166 638Q363 638 363 529Q363 495 347 470Q331 445 303 438Q355 426 390 366Q426 306 426 232Q426 132 367 66Q309 0 181 0L49 0Q39 0 32 7Q25 15 25 26Q25 52 49 52L73 52ZM130 586L130 461L203 461Q255 461 283 474Q312 488 312 524Q312 594 183 594Q130 594 130 586ZM200 412L130 412L130 53Q130 45 178 45Q275 45 322 92Q369 139 369 232Q369 325 321 368Q274 412 200 412ZM629 492Q715 492 762 436Q810 380 810 293Q810 155 820 106Q830 58 858 38Q875 30 875 16Q875 -10 851 -10Q827 -10 805 12Q784 35 771 68Q754 35 716 12Q679 -10 627 -10Q551 -10 503 37Q456 85 456 158Q456 232 506 284Q556 336 630 336Q705 336 755 287Q755 357 725 404Q695 452 633 452Q571 452 555 418Q564 397 564 383Q564 369 552 353Q540 337 522 337Q505 337 495 352Q485 367 485 387Q485 429 526 460Q568 492 629 492ZM511 163Q511 108 548 71Q585 34 636 34Q688 34 723 69Q758 105 758 156L758 165Q758 219 722 254Q686 289 633 289Q581 289 546 253Q511 218 511 163ZM961 52L961 585L929 585Q917 585 910 592Q903 600 903 611Q903 623 910 630Q917 637 929 637L986 637Q1003 637 1010 631Q1017 625 1017 609L1017 52L1042 52Q1054 52 1060 44Q1067 36 1067 26Q1067 0 1042 0L936 0Q925 0 918 7Q911 15 911 25Q911 36 918 44Q925 52 936 52L961 52ZM1167 52L1167 586L1146 586Q1123 586 1123 612Q1123 638 1146 638L1249 638Q1272 638 1272 612Q1272 586 1249 586L1223 586L1223 309L1376 429L1355 429Q1346 429 1339 436Q1333 444 1333 454Q1333 465 1339 472Q1345 479 1355 479L1474 479Q1495 479 1495 454Q1495 429 1474 429L1444 429L1342 347L1507 52L1536 52Q1557 52 1557 26Q1557 0 1536 0L1422 0Q1397 0 1397 26Q1397 52 1422 52L1444 52L1299 313L1223 256L1223 52L1243 52Q1265 52 1265 26Q1265 0 1243 0L1141 0Q1120 0 1120 26Q1120 52 1141 52L1167 52ZM1750 492Q1836 492 1883 436Q1931 380 1931 293Q1931 155 1941 106Q1951 58 1979 38Q1996 30 1996 16Q1996 -10 1972 -10Q1948 -10 1926 12Q1905 35 1892 68Q1875 35 1837 12Q1800 -10 1748 -10Q1672 -10 1624 37Q1577 85 1577 158Q1577 232 1627 284Q1677 336 1751 336Q1826 336 1876 287Q1876 357 1846 404Q1816 452 1754 452Q1692 452 1676 418Q1685 397 1685 383Q1685 369 1673 353Q1661 337 1643 337Q1626 337 1616 352Q1606 367 1606 387Q1606 429 1647 460Q1689 492 1750 492ZM1632 163Q1632 108 1669 71Q1706 34 1757 34Q1809 34 1844 69Q1879 105 1879 156L1879 165Q1879 219 1843 254Q1807 289 1754 289Q1702 289 1667 253Q1632 218 1632 163ZM2390 104Q2390 119 2400 130Q2411 141 2432 141Q2454 141 2470 123Q2486 105 2486 76Q2486 47 2462 17Q2438 -12 2391 -12Q2344 -12 2290 21Q2237 55 2205 55Q2158 55 2083 10Q2069 1 2067 0L2052 0Q2006 0 2006 31Q2006 44 2015 58L2214 357Q2202 367 2183 367Q2164 367 2148 335Q2144 325 2131 325Q2119 325 2109 332Q2100 340 2100 356Q2100 373 2127 392Q2154 411 2181 411Q2208 411 2240 396L2343 554Q2323 542 2300 542Q2259 542 2203 576Q2148 610 2124 610Q2101 610 2091 587Q2106 582 2115 569Q2124 556 2124 542Q2124 529 2113 520Q2103 511 2085 511Q2067 511 2051 527Q2036 544 2036 573Q2036 602 2062 625Q2088 649 2137 649Q2187 649 2237 618Q2288 588 2311 588Q2355 588 2389 633Q2400 648 2415 648Q2430 648 2441 638Q2452 628 2452 618Q2452 608 2447 601Q2443 595 2433 586Q2424 577 2417 567L2288 371Q2307 360 2317 360Q2328 360 2337 374Q2347 388 2358 388Q2370 388 2378 378Q2386 369 2386 354Q2386 340 2369 328Q2352 317 2328 317Q2305 317 2265 336L2083 59Q2151 105 2219 105Q2253 105 2283 94Q2313 83 2330 70Q2377 34 2401 34Q2426 34 2426 66Q2413 66 2401 78Q2390 90 2390 104ZM2511 241Q2511 349 2572 418Q2634 488 2738 488Q2843 488 2904 419Q2966 350 2966 242Q2966 135 2905 64Q2844 -6 2737 -6Q2631 -6 2571 64Q2511 134 2511 241ZM2616 99Q2665 41 2738 41Q2811 41 2860 98Q2910 156 2910 241Q2910 326 2860 383Q2810 441 2738 441Q2666 441 2616 384Q2567 327 2567 242Q2567 157 2616 99ZM3126 255L3126 52L3155 52Q3166 52 3173 44Q3180 36 3180 26Q3180 16 3173 8Q3166 0 3155 0L3038 0Q3027 0 3020 7Q3014 15 3014 25Q3014 36 3020 44Q3027 52 3038 52L3070 52L3070 428L3029 428Q3018 428 3012 435Q3006 443 3006 455Q3006 467 3013 473Q3021 480 3029 480L3106 480Q3117 480 3121 476Q3125 472 3125 461L3125 386Q3152 431 3194 459Q3236 487 3282 487Q3358 487 3390 441Q3422 396 3422 329L3422 52L3450 52Q3461 52 3468 44Q3475 36 3475 26Q3475 16 3468 8Q3461 0 3450 0L3342 0Q3318 0 3318 26Q3318 52 3342 52L3366 52L3366 334Q3366 440 3281 440Q3224 440 3175 387Q3126 334 3126 255ZM3826 332Q3822 372 3790 409Q3758 446 3710 446Q3663 446 3632 411Q3601 376 3589 332L3826 332ZM3721 -10Q3630 -10 3575 61Q3520 132 3520 242Q3520 352 3572 421Q3625 490 3711 490Q3755 490 3790 470Q3825 451 3844 422Q3884 363 3884 310Q3884 282 3858 282L3578 282Q3576 269 3576 245Q3576 153 3617 94Q3659 35 3721 35Q3748 35 3770 49Q3792 64 3801 77Q3810 91 3821 114Q3833 137 3853 137Q3883 137 3883 110Q3883 75 3838 32Q3794 -10 3721 -10Z" fill="#292929" style=""></path></g></g></g></svg>